<!--?xml version="1.0" standalone="no"?--><svg version="1.0" xmlns="http://www.w3.org/2000/svg" width="300.000000pt" height="293.000000pt" viewBox="0 0 300.000000 293.000000" preserveAspectRatio="xMidYMid meet">
<metadata>
  <rdf:rdf xmlns:rdf="http://www.w3.org/1999/02/22-rdf-syntax-ns#" xmlns:rdfs="http://www.w3.org/2000/01/rdf-schema#" xmlns:dc="http://purl.org/dc/elements/1.1/">
    <rdf:description dc:title="scales of justice" dc:publisher="Hiox" dc:date="2015-03-14" dc:format="image/svg+xml" dc:language="en">
      <dc:creator>
        <rdf:bag>
          <rdf:li>svgimages.com</rdf:li>
        </rdf:bag>
      </dc:creator>
    </rdf:description>
  </rdf:rdf>
</metadata>
<g transform="translate(0.000000,293.000000) scale(0.100000,-0.100000)" fill="#0C0C0C" stroke="none">
<path d="M1485 2898 c-2 -7 -18 -54 -35 -105 l-32 -92 25 -78 c36 -115 20
-145 -51 -98 -109 72 -249 92 -395 56 -48 -13 -120 -37 -160 -55 -153 -70
-299 -97 -380 -72 -46 14 -33 -18 18 -45 25 -13 45 -28 45 -33 0 -8 -93 -265
-157 -436 -14 -36 -35 -94 -48 -130 -12 -36 -38 -108 -57 -160 -19 -52 -77
-211 -129 -352 -66 -182 -98 -258 -109 -258 -32 -1 120 -128 203 -169 271
-133 580 -97 783 93 63 58 67 66 52 78 -14 10 -482 1272 -491 1322 -1 6 7 9
18 7 61 -11 231 -2 335 17 140 27 212 28 266 3 47 -22 84 -64 84 -97 0 -23 2
-24 90 -24 75 0 92 -3 97 -16 10 -27 -17 -203 -44 -287 -24 -73 -25 -88 -20
-215 4 -113 10 -151 32 -217 43 -126 44 -191 3 -305 -32 -93 -33 -98 -33 -260
0 -141 4 -175 22 -234 l22 -70 -35 -30 c-47 -41 -56 -101 -25 -171 30 -68 28
-81 -21 -107 -59 -30 -225 -37 -367 -14 -174 28 -225 21 -280 -38 -30 -31 -33
-95 -7 -143 l17 -33 779 0 c694 0 780 2 794 16 37 37 33 132 -8 172 -35 35
-102 38 -294 14 -201 -25 -284 -12 -371 59 l-24 20 21 38 c39 69 24 167 -30
205 l-21 15 19 63 c15 51 19 93 19 218 -1 144 -3 161 -30 245 -41 123 -41 230
-2 327 65 156 64 291 -3 528 -12 41 -24 105 -27 142 l-6 67 94 3 93 3 7 33
c10 49 55 90 117 108 51 15 61 15 161 -5 145 -28 284 -40 356 -30 33 4 61 6
64 4 4 -4 -336 -956 -365 -1022 -8 -17 -14 -36 -14 -43 0 -6 -9 -32 -19 -58
-11 -26 -32 -82 -47 -125 -17 -50 -34 -81 -45 -86 -16 -5 -14 -12 21 -52 42
-49 150 -125 215 -152 96 -39 160 -51 275 -51 132 0 190 13 318 76 104 51 232
164 207 182 -9 6 -36 67 -61 136 -25 69 -59 159 -74 200 -26 70 -136 367 -202
545 -16 44 -37 103 -47 130 -10 28 -39 107 -65 176 -25 70 -46 131 -46 137 0
6 17 19 37 29 37 18 62 47 51 58 -3 4 -25 1 -49 -5 -68 -18 -214 12 -346 71
-228 102 -367 110 -529 28 -75 -38 -86 -41 -99 -28 -14 13 -12 25 10 96 l26
81 -42 106 c-22 58 -43 106 -45 106 -3 0 -7 -6 -9 -12z m-927 -695 c5 -16 19
-53 30 -83 11 -30 28 -75 37 -100 10 -25 68 -184 131 -355 62 -170 137 -375
167 -455 30 -80 52 -148 50 -152 -5 -9 -857 -11 -865 -3 -3 3 8 41 24 83 16
42 35 95 43 117 7 22 20 58 29 80 8 22 35 96 60 165 48 133 225 616 252 688
18 49 28 52 42 15z m1961 -125 c29 -79 64 -170 77 -203 12 -33 73 -195 134
-360 61 -165 125 -333 141 -374 16 -40 29 -77 29 -82 0 -5 -188 -8 -437 -7
-383 3 -438 5 -436 18 1 8 25 76 53 150 28 74 55 149 60 165 6 17 14 39 20 50
5 11 37 94 70 185 32 91 69 190 80 220 16 42 99 269 135 368 10 28 23 5 74
-130z" id="node1" class="node"></path>
</g>
<g transform="translate(0.000000,293.000000) scale(0.100000,-0.100000)" fill="#A0A0A0" stroke="none">



</g>
</svg>